# xmcd CD database file
#
# Track frame offsets:
#	150
#	19849
#	38179
#	60471
#	81755
#	102570
#	119462
#	139314
#	162493
#	183790
#	200907
#	220259
#
# Disc length: 3241 seconds
#
# Revision: 2
# Processed by: cddbd v1.5.1PL0 Copyright (c) Steve Scherf et al.
# Submitted via: CDex 1.51
#
DISCID=b00ca70c
DTITLE=中川亜紀子 - 微笑みのSoldier！
DYEAR=1998
DGENRE=JPop
TTITLE0=微笑みのSoldier！
TTITLE1=フラストレーーション
TTITLE2=ちう。
TTITLE3=涙がこぼれおちるように
TTITLE4=HAPPY FACE
TTITLE5=はじけて恋しよう！！
TTITLE6=37℃3〜愛が始まる温度〜
TTITLE7=ぎゅっとぎゅっと抱きしめて
TTITLE8=Friday Night
TTITLE9=I WISH〜もう笑顔しか見せない〜
TTITLE10=ハレルヤ
TTITLE11=青空
EXTD=YEAR: 1998
EXTT0=
EXTT1=
EXTT2=
EXTT3=
EXTT4=
EXTT5=
EXTT6=
EXTT7=
EXTT8=
EXTT9=
EXTT10=
EXTT11=
PLAYORDER=
